<svg width="393" height="608" viewBox="0 0 393 608" fill="none" xmlns="http://www.w3.org/2000/svg">
<g clip-path="url(#clip0_4518_5839)">
<path d="M-17.1523 471.298C-17.1523 405.991 35.7896 353.049 101.097 353.049V353.049C166.404 353.049 219.346 405.991 219.346 471.298V471.298C219.346 536.605 166.404 589.547 101.097 589.547V589.547C35.7896 589.547 -17.1523 536.605 -17.1523 471.298V471.298Z" fill="url(#paint0_linear_4518_5839)"/>
<circle cx="21.8084" cy="21.8084" r="21.8084" transform="matrix(-0.942748 -0.333506 -0.333506 0.942748 160.762 449.879)" fill="white"/>
<circle cx="13.7312" cy="13.7312" r="13.7312" transform="matrix(-0.942748 -0.333506 -0.333506 0.942748 150.453 454.8)" fill="#242424"/>
<circle cx="4.84631" cy="4.84631" r="4.84631" transform="matrix(-0.942748 -0.333506 -0.333506 0.942748 148.391 455.784)" fill="white"/>
<circle cx="6.46174" cy="6.46174" r="6.46174" transform="matrix(-0.942748 -0.333506 -0.333506 0.942748 131.357 465.181)" fill="white"/>
<circle cx="4.84631" cy="4.84631" r="4.84631" transform="matrix(-0.942748 -0.333506 -0.333506 0.942748 148.391 455.784)" fill="white"/>
<circle cx="6.46174" cy="6.46174" r="6.46174" transform="matrix(-0.942748 -0.333506 -0.333506 0.942748 131.357 465.181)" fill="white"/>
<circle cx="21.8084" cy="21.8084" r="21.8084" transform="matrix(-0.942748 -0.333506 -0.333506 0.942748 113.551 433.177)" fill="white"/>
<circle cx="13.7312" cy="13.7312" r="13.7312" transform="matrix(-0.942748 -0.333506 -0.333506 0.942748 103.242 438.098)" fill="#242424"/>
<circle cx="4.84631" cy="4.84631" r="4.84631" transform="matrix(-0.942748 -0.333506 -0.333506 0.942748 101.18 439.083)" fill="white"/>
<circle cx="6.46174" cy="6.46174" r="6.46174" transform="matrix(-0.942748 -0.333506 -0.333506 0.942748 84.1484 448.479)" fill="white"/>
<circle cx="4.84631" cy="4.84631" r="4.84631" transform="matrix(-0.942748 -0.333506 -0.333506 0.942748 101.18 439.083)" fill="white"/>
<circle cx="6.46174" cy="6.46174" r="6.46174" transform="matrix(-0.942748 -0.333506 -0.333506 0.942748 84.1484 448.479)" fill="white"/>
<circle cx="2.42315" cy="2.42315" r="2.42315" transform="matrix(-0.942748 -0.333506 -0.333506 0.942748 152.4 488.046)" fill="white"/>
<circle cx="2.42315" cy="2.42315" r="2.42315" transform="matrix(-0.942748 -0.333506 -0.333506 0.942748 154.814 495.754)" fill="white"/>
<circle cx="2.42315" cy="2.42315" r="2.42315" transform="matrix(-0.942748 -0.333506 -0.333506 0.942748 145.676 492.521)" fill="white"/>
<circle cx="2.42315" cy="2.42315" r="2.42315" transform="matrix(-0.942748 -0.333506 -0.333506 0.942748 59.5 455.182)" fill="white"/>
<circle cx="2.42315" cy="2.42315" r="2.42315" transform="matrix(-0.942748 -0.333506 -0.333506 0.942748 61.9141 462.89)" fill="white"/>
<circle cx="2.42315" cy="2.42315" r="2.42315" transform="matrix(-0.942748 -0.333506 -0.333506 0.942748 52.7754 459.657)" fill="white"/>
<path fill-rule="evenodd" clip-rule="evenodd" d="M134.819 498.493C133.573 490.51 126.15 485.115 118.24 486.444C112.242 487.451 94.706 486.631 81.5598 473.732C75.839 468.119 66.6592 468.295 61.0561 474.126C55.453 479.956 55.5485 489.232 61.2692 494.845C82.7274 515.899 110.449 517.42 122.754 515.353C130.664 514.025 136.066 506.476 134.819 498.493Z" fill="#242424"/>
<path fill-rule="evenodd" clip-rule="evenodd" d="M100.669 492.049C99.138 491.062 98.1093 489.589 97.654 487.963C95.3245 489.703 92.0668 489.911 89.4804 488.242C86.1927 486.121 85.2207 481.762 87.2727 478.45C95.7978 484.348 105.12 486.332 111.689 486.686C111.588 487.801 111.223 488.908 110.574 489.913C108.428 493.238 103.994 494.195 100.669 492.049Z" fill="white"/>
<path fill-rule="evenodd" clip-rule="evenodd" d="M64.14 497.516C80.6355 512.056 100.124 515.978 113.427 516.035C110.482 506.286 103.096 498.021 92.7597 494.365C82.8584 490.862 72.4031 492.349 64.14 497.516Z" fill="#4C92CD"/>
<path d="M112 162C112 158.134 115.134 155 119 155V155C122.866 155 126 158.134 126 162V162C126 165.866 122.866 169 119 169V169C115.134 169 112 165.866 112 162V162Z" fill="#E5E5FF"/>
<path d="M118.5 132.5L128.751 118.539L111.535 116.642L118.5 132.5ZM175.311 64.012C158.41 66.163 125.988 80.1857 118.506 118.793L121.452 119.364C128.603 82.4611 159.574 69.039 175.689 66.988L175.311 64.012Z" fill="white"/>
<path d="M301.856 83.3431L367.142 40.549L333.859 111.129L411.98 120.572L340.732 152.721L395.142 209.981L319.25 188.635L324.486 266.925L279.477 202.088L233.091 264.768L240.022 186.759L163.715 204.509L219.356 149.853L148.834 114.357L227.126 108.615L195.374 36.4785L259.708 82.3512L281.604 7.34152L301.856 83.3431Z" fill="url(#paint1_linear_4518_5839)"/>
<circle cx="19.6241" cy="19.6241" r="19.6241" transform="matrix(-0.963599 -0.26735 -0.26735 0.963599 333.1 123.48)" fill="white"/>
<circle cx="12.3559" cy="12.3559" r="12.3559" transform="matrix(-0.963599 -0.26735 -0.26735 0.963599 324.154 128.541)" fill="#242424"/>
<circle cx="4.36091" cy="4.36091" r="4.36091" transform="matrix(-0.963599 -0.26735 -0.26735 0.963599 322.365 129.553)" fill="white"/>
<circle cx="5.81454" cy="5.81454" r="5.81454" transform="matrix(-0.963599 -0.26735 -0.26735 0.963599 307.662 139.051)" fill="white"/>
<circle cx="19.6241" cy="19.6241" r="19.6241" transform="matrix(-0.963599 -0.26735 -0.26735 0.963599 289.678 111.433)" fill="white"/>
<circle cx="12.3559" cy="12.3559" r="12.3559" transform="matrix(-0.963599 -0.26735 -0.26735 0.963599 280.732 116.493)" fill="#242424"/>
<circle cx="4.36091" cy="4.36091" r="4.36091" transform="matrix(-0.963599 -0.26735 -0.26735 0.963599 278.943 117.505)" fill="white"/>
<circle cx="5.81454" cy="5.81454" r="5.81454" transform="matrix(-0.963599 -0.26735 -0.26735 0.963599 264.24 127.003)" fill="white"/>
<circle cx="2.18045" cy="2.18045" r="2.18045" transform="matrix(-0.963599 -0.26735 -0.26735 0.963599 327.975 158.264)" fill="white"/>
<circle cx="2.18045" cy="2.18045" r="2.18045" transform="matrix(-0.963599 -0.26735 -0.26735 0.963599 330.621 165.032)" fill="white"/>
<circle cx="2.18045" cy="2.18045" r="2.18045" transform="matrix(-0.963599 -0.26735 -0.26735 0.963599 322.217 162.701)" fill="white"/>
<circle cx="2.18045" cy="2.18045" r="2.18045" transform="matrix(-0.963599 -0.26735 -0.26735 0.963599 242.531 134.558)" fill="white"/>
<circle cx="2.18045" cy="2.18045" r="2.18045" transform="matrix(-0.963599 -0.26735 -0.26735 0.963599 245.178 141.326)" fill="white"/>
<circle cx="2.18045" cy="2.18045" r="2.18045" transform="matrix(-0.963599 -0.26735 -0.26735 0.963599 236.773 138.995)" fill="white"/>
<path d="M260.096 164.491C260.096 164.491 262.923 174.037 277.156 177.984C291.39 181.931 298.729 175.21 298.729 175.21" stroke="#242424" stroke-width="10.1754" stroke-linecap="round"/>
<path d="M248.219 162.357C248.219 162.357 251.82 164.312 257.112 161.318C262.404 158.324 262.584 154.231 262.584 154.231" stroke="#242424" stroke-width="10.1754" stroke-linecap="round"/>
<path d="M52.0105 106.429L202.201 290.808L-32.571 328.687L52.0105 106.429Z" fill="url(#paint2_linear_4518_5839)"/>
<circle cx="18.4436" cy="18.4436" r="18.4436" transform="matrix(-0.983033 0.183427 0.183427 0.983033 102.867 197.792)" fill="white"/>
<circle cx="11.6127" cy="11.6127" r="11.6127" transform="matrix(-0.983033 0.183427 0.183427 0.983033 97.4043 205.76)" fill="#242424"/>
<circle cx="4.09858" cy="4.09858" r="4.09858" transform="matrix(-0.983033 0.183427 0.183427 0.983033 96.3125 207.353)" fill="white"/>
<circle cx="5.46478" cy="5.46478" r="5.46478" transform="matrix(-0.983033 0.183427 0.183427 0.983033 87.8223 221.445)" fill="white"/>
<circle cx="4.09858" cy="4.09858" r="4.09858" transform="matrix(-0.983033 0.183427 0.183427 0.983033 96.3125 207.353)" fill="white"/>
<circle cx="5.46478" cy="5.46478" r="5.46478" transform="matrix(-0.983033 0.183427 0.183427 0.983033 87.8223 221.445)" fill="white"/>
<circle cx="18.4436" cy="18.4436" r="18.4436" transform="matrix(-0.983033 0.183427 0.183427 0.983033 61.2324 205.56)" fill="white"/>
<circle cx="11.6127" cy="11.6127" r="11.6127" transform="matrix(-0.983033 0.183427 0.183427 0.983033 55.7695 213.528)" fill="#242424"/>
<circle cx="4.09858" cy="4.09858" r="4.09858" transform="matrix(-0.983033 0.183427 0.183427 0.983033 54.6777 215.122)" fill="white"/>
<circle cx="5.46478" cy="5.46478" r="5.46478" transform="matrix(-0.983033 0.183427 0.183427 0.983033 46.1875 229.214)" fill="white"/>
<circle cx="4.09858" cy="4.09858" r="4.09858" transform="matrix(-0.983033 0.183427 0.183427 0.983033 54.6777 215.122)" fill="white"/>
<circle cx="5.46478" cy="5.46478" r="5.46478" transform="matrix(-0.983033 0.183427 0.183427 0.983033 46.1875 229.214)" fill="white"/>
<path d="M94.0469 254.199L54.3935 261.599" stroke="#FEB831" stroke-width="25.7475" stroke-linecap="round"/>
<path d="M94.1172 254.187L54.4638 261.586" stroke="#242424" stroke-width="9.56336" stroke-linecap="round"/>
<circle cx="2.04929" cy="2.04929" r="2.04929" transform="matrix(-0.983033 0.183427 0.183427 0.983033 112.906 229.272)" fill="white"/>
<circle cx="2.04929" cy="2.04929" r="2.04929" transform="matrix(-0.983033 0.183427 0.183427 0.983033 117.938 233.892)" fill="white"/>
<circle cx="2.04929" cy="2.04929" r="2.04929" transform="matrix(-0.983033 0.183427 0.183427 0.983033 109.879 235.396)" fill="white"/>
<circle cx="2.04929" cy="2.04929" r="2.04929" transform="matrix(-0.983033 0.183427 0.183427 0.983033 30.9844 244.558)" fill="white"/>
<circle cx="2.04929" cy="2.04929" r="2.04929" transform="matrix(-0.983033 0.183427 0.183427 0.983033 36.0156 249.178)" fill="white"/>
<circle cx="2.04929" cy="2.04929" r="2.04929" transform="matrix(-0.983033 0.183427 0.183427 0.983033 27.957 250.682)" fill="white"/>
<path d="M356 245C356 241.134 359.134 238 363 238V238C366.866 238 370 241.134 370 245V245C370 248.866 366.866 252 363 252V252C359.134 252 356 248.866 356 245V245Z" fill="#E5E5FF"/>
<path d="M241 288C241 284.134 244.134 281 248 281V281C251.866 281 255 284.134 255 288V288C255 291.866 251.866 295 248 295V295C244.134 295 241 291.866 241 288V288Z" fill="#E5E5FF"/>
<path d="M240 509C240 505.134 243.134 502 247 502V502C250.866 502 254 505.134 254 509V509C254 512.866 250.866 516 247 516V516C243.134 516 240 512.866 240 509V509Z" fill="#E5E5FF"/>
<path d="M53 342C53 338.134 56.134 335 60 335V335C63.866 335 67 338.134 67 342V342C67 345.866 63.866 349 60 349V349C56.134 349 53 345.866 53 342V342Z" fill="#E5E5FF"/>
<path d="M191.501 360.5L174.899 355.562L187.476 343.654L191.501 360.5ZM102.655 329.541C129.506 323.168 161.283 330.101 183.216 349.576L181.224 351.819C160.059 333.026 129.296 326.302 103.347 332.46L102.655 329.541Z" fill="white"/>
<rect x="213.83" y="332.983" width="208.652" height="208.652" transform="rotate(-20.862 213.83 332.983)" fill="url(#paint3_linear_4518_5839)"/>
<circle cx="22.744" cy="22.744" r="22.744" transform="matrix(-0.868738 0.495271 0.495271 0.868738 373.744 329.947)" fill="white"/>
<circle cx="14.3203" cy="14.3203" r="14.3203" transform="matrix(-0.868738 0.495271 0.495271 0.868738 370.6 341.437)" fill="#242424"/>
<circle cx="22.744" cy="22.744" r="22.744" transform="matrix(-0.868738 0.495271 0.495271 0.868738 328.371 355.813)" fill="white"/>
<circle cx="14.3203" cy="14.3203" r="14.3203" transform="matrix(-0.868738 0.495271 0.495271 0.868738 325.227 367.303)" fill="#242424"/>
<circle cx="5.05423" cy="5.05423" r="5.05423" transform="matrix(-0.868738 0.495271 0.495271 0.868738 324.598 369.601)" fill="white"/>
<circle cx="6.73897" cy="6.73897" r="6.73897" transform="matrix(-0.868738 0.495271 0.495271 0.868738 320.398 389.449)" fill="white"/>
<circle cx="5.05423" cy="5.05423" r="5.05423" transform="matrix(-0.868738 0.495271 0.495271 0.868738 324.598 369.601)" fill="white"/>
<circle cx="6.73897" cy="6.73897" r="6.73897" transform="matrix(-0.868738 0.495271 0.495271 0.868738 320.398 389.449)" fill="white"/>
<circle cx="5.05423" cy="5.05423" r="5.05423" transform="matrix(-0.868738 0.495271 0.495271 0.868738 369.971 343.735)" fill="white"/>
<circle cx="6.73897" cy="6.73897" r="6.73897" transform="matrix(-0.868738 0.495271 0.495271 0.868738 365.771 363.582)" fill="white"/>
<circle cx="5.05423" cy="5.05423" r="5.05423" transform="matrix(-0.868738 0.495271 0.495271 0.868738 369.971 343.735)" fill="white"/>
<circle cx="6.73897" cy="6.73897" r="6.73897" transform="matrix(-0.868738 0.495271 0.495271 0.868738 365.771 363.582)" fill="white"/>
<path fill-rule="evenodd" clip-rule="evenodd" d="M330.645 410.756L335.036 408.253L335.036 408.254L373.09 386.559L373.09 386.559L377.48 384.056L377.481 384.056L382.171 381.382C389.281 377.329 398.331 379.807 402.385 386.917L403.559 388.977C407.613 396.087 405.135 405.137 398.025 409.191L371.383 424.379L371.383 424.38L366.992 426.883L366.992 426.883L344.739 439.569C337.628 443.623 328.578 441.145 324.525 434.035L323.35 431.975C319.297 424.864 321.775 415.814 328.885 411.761L330.646 410.757L330.645 410.756ZM366.992 426.883L371.383 424.379L355.529 396.571L351.139 399.075L366.992 426.883ZM377.481 384.056L373.09 386.559L388.943 414.367L393.334 411.864L377.481 384.056ZM330.646 410.757L346.499 438.565L350.89 436.062L335.036 408.254L330.646 410.757Z" fill="white"/>
<circle cx="2.52712" cy="2.52712" r="2.52712" transform="matrix(-0.868738 0.495271 0.495271 0.868738 397.111 370.927)" fill="white"/>
<circle cx="2.52712" cy="2.52712" r="2.52712" transform="matrix(-0.868738 0.495271 0.495271 0.868738 308.885 413.468)" fill="white"/>
<circle cx="2.52712" cy="2.52712" r="2.52712" transform="matrix(-0.868738 0.495271 0.495271 0.868738 316.611 416.819)" fill="white"/>
<circle cx="2.52712" cy="2.52712" r="2.52712" transform="matrix(-0.868738 0.495271 0.495271 0.868738 307.832 421.826)" fill="white"/>
</g>
<defs>
<linearGradient id="paint0_linear_4518_5839" x1="123.761" y1="438.779" x2="234.127" y2="584.62" gradientUnits="userSpaceOnUse">
<stop stop-color="#00AE5E"/>
<stop offset="1" stop-color="#73FFBF"/>
</linearGradient>
<linearGradient id="paint1_linear_4518_5839" x1="365.644" y1="39.2922" x2="199.907" y2="236.941" gradientUnits="userSpaceOnUse">
<stop offset="0.645" stop-color="#FFD43C"/>
<stop offset="1" stop-color="#FFF1BF"/>
</linearGradient>
<linearGradient id="paint2_linear_4518_5839" x1="27.5865" y1="198.726" x2="209.426" y2="220.105" gradientUnits="userSpaceOnUse">
<stop stop-color="#FF3A3A"/>
<stop offset="1" stop-color="#FFBB84"/>
</linearGradient>
<linearGradient id="paint3_linear_4518_5839" x1="253.741" y1="395.645" x2="425.432" y2="482.718" gradientUnits="userSpaceOnUse">
<stop stop-color="#2C90FF"/>
<stop offset="1" stop-color="#7CBAFF"/>
</linearGradient>
<clipPath id="clip0_4518_5839">
<rect width="393" height="608" fill="white"/>
</clipPath>
</defs>
</svg>
